<svg width="31" height="31" viewBox="0 0 31 31" fill="none" xmlns="http://www.w3.org/2000/svg">
<path d="M29.535 15.0924C29.535 23.0688 23.0688 29.535 15.0924 29.5349C7.11609 29.5349 0.650024 23.0688 0.650024 15.0924C0.650024 7.11606 7.11609 0.649953 15.0924 0.649902C23.0688 0.649852 29.535 7.11601 29.535 15.0924Z" stroke="#9FE870" stroke-width="1.3"/>
<path d="M13.0655 20.4512L8.37165 15.7574C8.08966 15.4754 8.08966 15.0182 8.37165 14.7362L9.39287 13.7149C9.67486 13.4329 10.1321 13.4329 10.4141 13.7149L13.5761 16.8769L20.3487 10.1043C20.6307 9.82232 21.0879 9.82232 21.3699 10.1043L22.3912 11.1256C22.6732 11.4076 22.6732 11.8648 22.3912 12.1468L14.0867 20.4513C13.8047 20.7333 13.3475 20.7333 13.0655 20.4512Z" fill="#9FE870"/>
</svg>
