<svg width="68" height="50" viewBox="0 0 68 50" fill="none" xmlns="http://www.w3.org/2000/svg">
<path d="M19.3263 0V36.4419C19.3263 36.4419 19.0877 41.4767 14.0772 41.4767C9.06667 41.4767 8.35088 36.4419 8.35088 36.4419H0C0 36.4419 0 49.9887 14.0772 49.8679C28.1544 49.7471 27.9158 36.4419 27.9158 36.4419V15.8235V14.1452V12.2272V10.549V8.87074V7.19249V0H19.3263Z" fill="#9FE870"/>
<path fill-rule="evenodd" clip-rule="evenodd" d="M41.1579 8.15149C41.1579 6.56257 39.8226 5.27449 38.1754 5.27449C36.8718 5.27449 35.7635 6.06039 35.3579 7.19249H27.9158V8.87074H35.284C35.6111 10.1301 36.7816 11.0285 38.1754 11.0285C39.8226 11.0285 41.1579 9.74041 41.1579 8.15149ZM38.1754 6.71299C37.3848 6.71299 36.7439 7.35703 36.7439 8.15149C36.7439 8.94595 37.3848 9.58998 38.1754 9.58998C38.9661 9.58998 39.607 8.94595 39.607 8.15149C39.607 7.35703 38.9661 6.71299 38.1754 6.71299Z" fill="#9FE870"/>
<path d="M31.4947 10.549H27.9158V12.2272H31.4947V10.549Z" fill="#9FE870"/>
<path fill-rule="evenodd" clip-rule="evenodd" d="M43.6632 20.3787V17.7415H34.5965V50H53.9228C61.0807 50 68 43.6344 68 36.6817C68 27.0917 62.9895 24.4545 62.9895 24.4545C71.3408 17.0521 65.8526 0 53.4456 0H34.5965V5.03474C38.0536 1.70757 43.9018 3.59624 43.186 9.11049H52.7298C52.7298 9.11049 57.9789 9.11049 57.9789 14.8645C57.9789 15.1155 57.9681 15.3551 57.9473 15.5837C57.512 20.3787 52.7298 20.3787 52.7298 20.3787H43.6632ZM43.4246 29.2495V40.9972H53.9228C53.9228 40.9972 58.6947 40.9972 58.6947 35.2432C58.6947 29.2495 52.9684 29.2495 52.9684 29.2495H43.4246Z" fill="#EDEDED"/>
<path fill-rule="evenodd" clip-rule="evenodd" d="M51.2982 15.1042C51.2982 13.3829 49.9095 11.9875 48.1965 11.9875C46.8164 11.9875 45.6469 12.8931 45.2443 14.1452H27.9158V15.8235H45.2443C45.6469 17.0756 46.8164 18.221 48.1965 18.221C49.9095 18.221 51.2982 16.8256 51.2982 15.1042ZM48.1965 13.6657C47.4058 13.6657 46.7649 14.3098 46.7649 15.1042C46.7649 15.8987 47.4058 16.5427 48.1965 16.5427C48.9871 16.5427 49.6281 15.8987 49.6281 15.1042C49.6281 14.3098 48.9871 13.6657 48.1965 13.6657Z" fill="#EDEDED"/>
</svg>
